<svg width="24" height="32" viewBox="0 0 24 32" fill="none" xmlns="http://www.w3.org/2000/svg">
<path d="M20.7887 12.1453C20.7024 12.0372 20.5978 12.0584 20.543 12.0805C20.497 12.0991 20.3918 12.1586 20.4063 12.3078C20.4238 12.4868 20.4336 12.6694 20.4355 12.8504C20.4433 13.6016 20.142 14.3374 19.6089 14.8694C19.0791 15.3979 18.3824 15.6826 17.6405 15.6744C16.6271 15.6614 15.7866 15.1329 15.2098 14.1458C14.7329 13.3296 14.9425 12.2769 15.1645 11.1624C15.2943 10.51 15.4286 9.83538 15.4286 9.19332C15.4286 4.194 12.0678 1.30975 10.0644 0.0354404C10.023 0.00912793 9.98352 -0.00012207 9.94858 -0.00012207C9.89177 -0.00012207 9.84677 0.0243779 9.82458 0.0393779C9.78158 0.0685029 9.71277 0.134878 9.73489 0.252378C10.5006 4.31875 8.21664 6.76444 5.79852 9.35369C3.30602 12.0226 0.480957 15.0477 0.480957 20.5034C0.480957 26.8427 5.63827 32 11.9775 32C17.197 32 21.799 28.361 23.1685 23.1506C24.1023 19.5979 23.1237 15.0724 20.7887 12.1453ZM12.2643 29.5461C10.677 29.6184 9.16733 29.0491 8.01427 27.9466C6.87358 26.8559 6.21933 25.3337 6.21933 23.7703C6.21933 20.8365 7.34108 18.6828 10.3582 15.8235C10.4076 15.7767 10.4581 15.7619 10.5022 15.7619C10.5421 15.7619 10.5768 15.7741 10.6006 15.7855C10.6508 15.8097 10.7333 15.8696 10.7221 15.9991C10.6143 17.2544 10.6161 18.2963 10.7276 19.0961C11.0126 21.1389 12.5081 22.5114 14.449 22.5114C15.4006 22.5114 16.3071 22.1533 17.0014 21.503C17.0282 21.4772 17.0609 21.4584 17.0966 21.4482C17.1324 21.438 17.1701 21.4367 17.2065 21.4444C17.2521 21.4543 17.3133 21.4823 17.3454 21.5596C17.6333 22.2547 17.7804 22.9925 17.7826 23.7524C17.7918 26.8103 15.3163 29.4093 12.2643 29.5461Z" fill="white"/>
</svg>
