<svg xmlns="http://www.w3.org/2000/svg" fill="none" viewBox="52 12 40 40">
<g filter="url(#filter0_d_5096_1318)">
<rect x="52.5" y="12.5" width="39" height="39" rx="19.5" stroke="#0B83CF" shape-rendering="crispEdges"/>
<g clip-path="url(#clip0_5096_1318)">
<path d="M78.6463 36.2199C78.6463 36.4599 78.593 36.7066 78.4797 36.9466C78.3663 37.1866 78.2197 37.4133 78.0263 37.6266C77.6997 37.9866 77.3397 38.2466 76.933 38.4133C76.533 38.5799 76.0997 38.6666 75.633 38.6666C74.953 38.6666 74.2263 38.5066 73.4597 38.1799C72.693 37.8533 71.9263 37.4133 71.1663 36.8599C70.3917 36.2933 69.6608 35.6693 68.9797 34.9933C68.3055 34.3146 67.6837 33.5858 67.1197 32.8133C66.573 32.0533 66.133 31.2933 65.813 30.5399C65.493 29.7799 65.333 29.0533 65.333 28.3599C65.333 27.9066 65.413 27.4733 65.573 27.0733C65.733 26.6666 65.9863 26.2933 66.3397 25.9599C66.7663 25.5399 67.233 25.3333 67.7263 25.3333C67.913 25.3333 68.0997 25.3733 68.2663 25.4533C68.4397 25.5333 68.593 25.6533 68.713 25.8266L70.2597 28.0066C70.3797 28.1733 70.4663 28.3266 70.5263 28.4733C70.5863 28.6133 70.6197 28.7533 70.6197 28.8799C70.6197 29.0399 70.573 29.1999 70.4797 29.3533C70.393 29.5066 70.2663 29.6666 70.1063 29.8266L69.5997 30.3533C69.5263 30.4266 69.493 30.5133 69.493 30.6199C69.493 30.6733 69.4997 30.7199 69.513 30.7733C69.533 30.8266 69.553 30.8666 69.5663 30.9066C69.6863 31.1266 69.893 31.4133 70.1863 31.7599C70.4863 32.1066 70.8063 32.4599 71.153 32.8133C71.513 33.1666 71.8597 33.4933 72.213 33.7933C72.5597 34.0866 72.8463 34.2866 73.073 34.4066C73.1063 34.4199 73.1463 34.4399 73.193 34.4599C73.2463 34.4799 73.2997 34.4866 73.3597 34.4866C73.473 34.4866 73.5597 34.4466 73.633 34.3733L74.1397 33.8733C74.3063 33.7066 74.4663 33.5799 74.6197 33.4999C74.773 33.4066 74.9263 33.3599 75.093 33.3599C75.2197 33.3599 75.353 33.3866 75.4997 33.4466C75.6463 33.5066 75.7997 33.5933 75.9663 33.7066L78.173 35.2733C78.3463 35.3933 78.4663 35.5333 78.5397 35.6999C78.6063 35.8666 78.6463 36.0333 78.6463 36.2199Z" stroke="#0B83CF" stroke-width="1.5" stroke-miterlimit="10"/>
<path d="M76.3333 29.9999C76.3333 29.5999 76.02 28.9866 75.5533 28.4866C75.1267 28.0266 74.56 27.6666 74 27.6666M78.6667 29.9999C78.6667 27.4199 76.58 25.3333 74 25.3333" stroke="#0B83CF" stroke-width="1.5" stroke-linecap="round" stroke-linejoin="round"/>
</g>
</g>
<defs>
<filter id="filter0_d_5096_1318" x="0" y="-36" width="144" height="144" filterUnits="userSpaceOnUse" color-interpolation-filters="sRGB">
<feFlood flood-opacity="0" result="BackgroundImageFix"/>
<feColorMatrix in="SourceAlpha" type="matrix" values="0 0 0 0 0 0 0 0 0 0 0 0 0 0 0 0 0 0 127 0" result="hardAlpha"/>
<feOffset dy="4"/>
<feGaussianBlur stdDeviation="26"/>
<feComposite in2="hardAlpha" operator="out"/>
<feColorMatrix type="matrix" values="0 0 0 0 0.133333 0 0 0 0 0.168627 0 0 0 0 0.298039 0 0 0 0.08 0"/>
<feBlend mode="normal" in2="BackgroundImageFix" result="effect1_dropShadow_5096_1318"/>
<feBlend mode="normal" in="SourceGraphic" in2="effect1_dropShadow_5096_1318" result="shape"/>
</filter>
<clipPath id="clip0_5096_1318">
<rect width="16" height="16" fill="white" transform="translate(64 24)"/>
</clipPath>
</defs>
</svg>