<svg width="48" height="48" viewBox="0 0 48 48" fill="none" xmlns="http://www.w3.org/2000/svg">
<path d="M16.048 19.304C16.176 25.544 19.296 29.288 24.768 29.288H25.088V25.72C27.096 25.92 28.616 27.392 29.224 29.288H32.064C31.7727 28.2106 31.2563 27.2072 30.5489 26.344C29.8415 25.4807 28.9592 24.7773 27.96 24.28C28.8553 23.7347 29.6286 23.0107 30.2315 22.1532C30.8344 21.2957 31.254 20.323 31.464 19.296H28.888C28.328 21.28 26.664 23.08 25.088 23.248V19.304H22.504V26.216C20.904 25.816 18.888 23.88 18.8 19.304H16.048Z" fill="#0B83CF"/>
<path fill-rule="evenodd" clip-rule="evenodd" d="M24 0C37.2548 0 48 10.7452 48 24C48 37.2548 37.2548 48 24 48C10.7452 48 0 37.2548 0 24C0 10.7452 10.7452 0 24 0ZM12 23.52C12 18.088 12 15.376 13.68 13.68C15.384 12 18.096 12 23.52 12H24.48C29.912 12 32.624 12 34.32 13.68C36 15.384 36 18.096 36 23.52V24.48C36 29.912 36 32.624 34.32 34.32C32.616 36 29.904 36 24.48 36H23.52C18.088 36 15.376 36 13.68 34.32C12 32.616 12 29.904 12 24.48V23.52Z" fill="#0B83CF"/>
</svg>
