<svg width="48" height="48" viewBox="0 0 48 48" fill="none" xmlns="http://www.w3.org/2000/svg">
<path d="M27.9 24L21.6 20.4V27.6L27.9 24Z" fill="#0B83CF"/>
<path fill-rule="evenodd" clip-rule="evenodd" d="M0 24C0 10.7452 10.7452 0 24 0C37.2548 0 48 10.7452 48 24C48 37.2548 37.2548 48 24 48C10.7452 48 0 37.2548 0 24ZM33.3 16.05C34.35 16.35 35.1 17.1 35.4 18.15C36 20.1 36 24 36 24C36 24 36 27.9 35.55 29.85C35.25 30.9 34.5 31.65 33.45 31.95C31.5 32.4 24 32.4 24 32.4C24 32.4 16.35 32.4 14.55 31.95C13.5 31.65 12.75 30.9 12.45 29.85C12 27.9 12 24 12 24C12 24 12 20.1 12.3 18.15C12.6 17.1 13.35 16.35 14.4 16.05C16.35 15.6 23.85 15.6 23.85 15.6C23.85 15.6 31.5 15.6 33.3 16.05Z" fill="#0B83CF"/>
</svg>
